<svg width="806" height="302" viewBox="0 0 806 302" fill="none" xmlns="http://www.w3.org/2000/svg">
<g filter="url(#filter0_d_2_136)">
<path d="M43.6 184.2L41.2 183C36.2 176.2 30.6 170.2 24.4 165C18.2 159.8 11.7 154.8 4.9 150C4.3 149.4 4 148.8 4 148.2C4 146.6 5.5 143.4 8.5 138.6C11.7 133.8 15.4 128.5 19.6 122.7C23.8 116.9 27.8 111.5 31.6 106.5C35.4 101.3 38 97.7 39.4 95.7C40.6 93.5 42.5 92.4 45.1 92.4C46.5 92.4 47.2 93 47.2 94.2C47.2 94.8 46.3 96.6 44.5 99.6C42.7 102.4 40.5 105.9 37.9 110.1C35.3 114.1 32.5 118.2 29.5 122.4C26.7 126.6 24.2 130.4 22 133.8C19.8 137 18.3 139.1 17.5 140.1C18.7 141.5 20.8 144.1 23.8 147.9C27 151.7 30.3 155.9 33.7 160.5C37.3 164.9 40.3 169 42.7 172.8C45.3 176.4 46.6 178.9 46.6 180.3C46.6 181.3 46.4 182.2 46 183C45.8 183.8 45 184.2 43.6 184.2Z" fill="#FFCD42"/>
<path d="M43.6 184.2L41.2 183C36.2 176.2 30.6 170.2 24.4 165C18.2 159.8 11.7 154.8 4.9 150C4.3 149.4 4 148.8 4 148.2C4 146.6 5.5 143.4 8.5 138.6C11.7 133.8 15.4 128.5 19.6 122.7C23.8 116.9 27.8 111.5 31.6 106.5C35.4 101.3 38 97.7 39.4 95.7C40.6 93.5 42.5 92.4 45.1 92.4C46.5 92.4 47.2 93 47.2 94.2C47.2 94.8 46.3 96.6 44.5 99.6C42.7 102.4 40.5 105.9 37.9 110.1C35.3 114.1 32.5 118.2 29.5 122.4C26.7 126.6 24.2 130.4 22 133.8C19.8 137 18.3 139.1 17.5 140.1C18.7 141.5 20.8 144.1 23.8 147.9C27 151.7 30.3 155.9 33.7 160.5C37.3 164.9 40.3 169 42.7 172.8C45.3 176.4 46.6 178.9 46.6 180.3C46.6 181.3 46.4 182.2 46 183C45.8 183.8 45 184.2 43.6 184.2Z" fill="#FF9A52" fill-opacity="0.8"/>
<path d="M43.6 184.2L41.2 183C36.2 176.2 30.6 170.2 24.4 165C18.2 159.8 11.7 154.8 4.9 150C4.3 149.4 4 148.8 4 148.2C4 146.6 5.5 143.4 8.5 138.6C11.7 133.8 15.4 128.5 19.6 122.7C23.8 116.9 27.8 111.5 31.6 106.5C35.4 101.3 38 97.7 39.4 95.7C40.6 93.5 42.5 92.4 45.1 92.4C46.5 92.4 47.2 93 47.2 94.2C47.2 94.8 46.3 96.6 44.5 99.6C42.7 102.4 40.5 105.9 37.9 110.1C35.3 114.1 32.5 118.2 29.5 122.4C26.7 126.6 24.2 130.4 22 133.8C19.8 137 18.3 139.1 17.5 140.1C18.7 141.5 20.8 144.1 23.8 147.9C27 151.7 30.3 155.9 33.7 160.5C37.3 164.9 40.3 169 42.7 172.8C45.3 176.4 46.6 178.9 46.6 180.3C46.6 181.3 46.4 182.2 46 183C45.8 183.8 45 184.2 43.6 184.2Z" fill="#FF0000" fill-opacity="0.65"/>
<path d="M43.6 184.2L41.2 183C36.2 176.2 30.6 170.2 24.4 165C18.2 159.8 11.7 154.8 4.9 150C4.3 149.4 4 148.8 4 148.2C4 146.6 5.5 143.4 8.5 138.6C11.7 133.8 15.4 128.5 19.6 122.7C23.8 116.9 27.8 111.5 31.6 106.5C35.4 101.3 38 97.7 39.4 95.7C40.6 93.5 42.5 92.4 45.1 92.4C46.5 92.4 47.2 93 47.2 94.2C47.2 94.8 46.3 96.6 44.5 99.6C42.7 102.4 40.5 105.9 37.9 110.1C35.3 114.1 32.5 118.2 29.5 122.4C26.7 126.6 24.2 130.4 22 133.8C19.8 137 18.3 139.1 17.5 140.1C18.7 141.5 20.8 144.1 23.8 147.9C27 151.7 30.3 155.9 33.7 160.5C37.3 164.9 40.3 169 42.7 172.8C45.3 176.4 46.6 178.9 46.6 180.3C46.6 181.3 46.4 182.2 46 183C45.8 183.8 45 184.2 43.6 184.2Z" fill="#4D0202" fill-opacity="0.3"/>
<path d="M121.562 293.7C117.162 293.9 113.762 293.1 111.362 291.3C108.762 289.5 107.862 286.1 108.662 281.1C108.662 280.5 108.862 279.6 109.262 278.4C109.662 277.2 110.162 276.4 110.762 276C110.562 281 111.162 284.5 112.562 286.5C113.962 288.5 116.262 289.5 119.462 289.5C127.262 289.5 135.262 287 143.463 282C151.863 277 160.163 270.3 168.363 261.9C166.363 261.3 163.763 260.1 160.563 258.3C157.563 256.7 155.263 255.4 153.663 254.4C145.663 248.6 141.662 241.9 141.662 234.3C141.662 228.5 144.263 222.2 149.463 215.4C154.663 208.6 163.163 201.7 174.963 194.7C182.563 190.1 191.363 186 201.363 182.4C211.363 178.8 220.663 175.9 229.263 173.7C232.263 167.9 235.163 162.2 237.963 156.6C240.763 151 243.463 145.4 246.063 139.8C247.063 137.6 248.863 133.4 251.463 127.2C254.063 121 256.963 113.7 260.163 105.3C263.363 96.9 266.363 88 269.163 78.6C272.163 69 274.663 59.7 276.663 50.7C278.663 41.7 279.663 33.7 279.663 26.7C279.663 19.9 278.463 14.6 276.063 10.8C273.863 7.00002 269.863 5.10002 264.063 5.10002H263.763C262.163 5.10002 261.363 4.60002 261.363 3.60002C261.363 2.60002 262.363 1.90002 264.363 1.50001C273.963 0.500012 280.663 2.80001 284.463 8.40001C288.263 14 290.163 21.4 290.163 30.6C290.163 32.2 290.063 33.9 289.863 35.7C289.863 37.5 289.763 39.4 289.563 41.4C290.763 42.4 291.563 44.1 291.963 46.5C293.163 52.9 294.363 61.3 295.563 71.7C296.963 82.1 298.563 93.5 300.363 105.9C302.163 118.3 304.263 130.9 306.663 143.7C309.263 156.3 312.263 168.2 315.663 179.4C319.263 190.4 323.463 199.7 328.263 207.3C329.263 208.9 330.663 211 332.463 213.6C334.263 216 336.463 218.2 339.063 220.2C341.663 222.2 344.563 223.2 347.763 223.2C351.163 223.2 354.663 221.8 358.263 219C361.463 216.4 364.463 212.8 367.263 208.2C370.063 203.6 372.663 198.7 375.063 193.5C376.263 191.3 377.363 190.2 378.363 190.2C379.363 190.2 380.063 190.8 380.463 192C381.063 193 381.263 194 381.063 195C380.263 197.6 378.563 200.7 375.963 204.3C373.563 207.7 371.063 210.9 368.463 213.9C365.863 216.7 363.763 218.7 362.163 219.9C358.563 222.7 355.063 224.7 351.663 225.9C348.463 227.3 345.463 228 342.663 228C336.063 228 330.263 225.5 325.263 220.5C320.463 215.3 316.263 209.9 312.663 204.3C307.663 196.3 303.663 186.2 300.663 174C297.863 161.8 295.663 148.6 294.062 134.4C292.463 120.2 291.163 106.2 290.163 92.4C289.363 78.6 288.463 66 287.463 54.6C285.063 65.8 281.763 77.3 277.563 89.1C273.363 100.9 269.063 111.8 264.663 121.8C260.463 131.6 256.963 139.2 254.163 144.6C249.763 153.6 244.963 162.6 239.763 171.6C248.963 169.4 258.563 167.4 268.563 165.6C278.563 163.8 287.363 162.1 294.963 160.5H295.863C296.663 160.5 297.063 160.8 297.063 161.4C297.063 162 296.563 162.8 295.563 163.8C294.563 164.8 293.262 165.5 291.663 165.9C283.063 167.5 273.763 169.4 263.763 171.6C253.763 173.6 244.363 175.8 235.563 178.2C226.362 194 217.063 209 207.663 223.2C198.263 237.4 187.963 250 176.763 261C184.363 263.4 194.063 264.6 205.863 264.6H206.463C208.063 264.6 208.863 265 208.863 265.8C208.863 267 207.663 267.6 205.263 267.6C199.663 267.8 194.163 267.5 188.763 266.7C183.363 266.1 178.363 265.1 173.763 263.7C164.963 272.3 156.063 279.2 147.063 284.4C138.262 289.8 129.762 292.9 121.562 293.7ZM171.363 258.9C180.963 248.9 190.263 237.2 199.263 223.8C208.463 210.4 217.063 196.4 225.063 181.8C222.463 182.6 219.763 183.5 216.963 184.5C214.163 185.5 211.463 186.7 208.863 188.1C205.463 189.7 200.863 192 195.063 195C189.263 198 183.463 201.2 177.663 204.6C172.063 207.8 167.763 210.7 164.763 213.3C160.763 216.9 157.863 220.4 156.063 223.8C154.263 227.2 153.363 230.5 153.363 233.7C153.363 236.5 153.863 239.2 154.863 241.8C156.063 244.4 157.463 246.9 159.063 249.3C160.063 250.5 161.863 252.1 164.463 254.1C167.263 256.3 169.563 257.9 171.363 258.9ZM383.134 235.2C379.334 235.2 376.734 234.1 375.334 231.9C374.534 230.7 374.134 229.4 374.134 228C374.134 226.4 374.834 224.5 376.234 222.3C377.634 220.1 380.134 218.1 383.734 216.3C384.134 216.1 385.634 215.2 388.234 213.6C391.034 212 392.734 211.1 393.334 210.9C392.134 206.5 390.034 202.1 387.034 197.7C384.034 193.1 381.334 187.9 378.934 182.1C376.534 176.3 375.534 169.1 375.934 160.5C376.334 152.3 378.534 145.2 382.534 139.2C386.534 133.2 391.634 128.3 397.834 124.5C404.234 120.7 410.834 118.1 417.634 116.7C419.234 116.3 420.934 116 422.734 115.8C424.534 115.6 426.334 115.5 428.134 115.5C433.134 115.5 437.534 116.1 441.334 117.3C445.334 118.5 448.734 120.5 451.534 123.3C454.534 126.1 456.034 129.2 456.034 132.6C456.034 134.8 455.334 137 453.934 139.2C453.534 140 452.934 140.8 452.134 141.6C451.334 142.4 450.334 142.8 449.134 142.8C448.334 142.8 447.934 142.2 447.934 141C447.934 140 448.134 138.7 448.534 137.1C449.134 135.5 449.534 134.5 449.734 134.1C449.934 133.7 450.034 133 450.034 132C450.034 129.8 449.434 128 448.234 126.6C446.834 124.8 444.634 123.7 441.634 123.3C438.834 122.9 436.234 122.7 433.834 122.7C426.834 122.7 419.934 124.6 413.134 128.4C406.334 132.2 400.334 137.1 395.134 143.1C390.134 148.9 386.634 155.1 384.634 161.7C384.034 163.5 383.634 165.3 383.434 167.1C383.234 168.7 383.134 170.3 383.134 171.9C383.134 178.9 384.734 185.6 387.934 192C391.134 198.4 393.934 204.3 396.334 209.7C401.934 206.7 406.934 204.6 411.334 203.4C411.934 203.2 412.434 203.1 412.834 203.1C413.434 203.1 413.834 203.1 414.034 203.1C415.034 203.1 415.534 203.4 415.534 204C415.534 205 414.234 206 411.634 207C411.034 207.2 409.534 207.8 407.134 208.8C404.734 209.8 401.834 211.2 398.434 213C399.434 215.6 399.934 218.1 399.934 220.5C399.934 222.9 399.334 225.2 398.134 227.4C396.934 229.6 394.834 231.4 391.834 232.8C388.834 234.4 385.934 235.2 383.134 235.2ZM384.034 227.1C384.234 228.5 385.134 228.8 386.734 228C388.534 227.2 390.334 225.8 392.134 223.8C393.934 221.8 394.834 219.8 394.834 217.8C394.834 217.4 394.834 217 394.834 216.6C395.034 216 395.034 215.4 394.834 214.8C391.834 216.6 389.234 218.6 387.034 220.8C384.834 222.8 383.834 224.9 384.034 227.1ZM483.384 277.5C478.784 277.5 475.284 275.6 472.884 271.8C470.684 268 469.584 263.6 469.584 258.6C469.584 252.6 470.684 245.7 472.884 237.9C475.284 230.3 478.184 222.5 481.584 214.5C484.984 206.3 488.484 198.4 492.084 190.8C495.884 183.2 499.184 176.4 501.984 170.4C504.984 164.4 506.984 159.8 507.984 156.6C509.184 153 509.784 150.3 509.784 148.5C509.784 146.5 509.084 145.5 507.684 145.5C506.084 145.5 503.684 146.8 500.484 149.4C497.484 151.8 494.484 154.5 491.484 157.5C488.684 160.5 486.684 162.7 485.484 164.1C479.084 171.3 473.284 179.3 468.084 188.1C463.084 196.9 459.984 204.4 458.784 210.6C458.584 211.6 458.184 213.4 457.584 216C457.184 218.6 456.284 219.8 454.884 219.6C452.884 219.2 451.484 218 450.684 216C450.084 213.8 449.684 211.8 449.484 210C449.484 209 449.384 208 449.184 207C449.184 205.8 449.184 204.6 449.184 203.4C449.184 193.6 450.284 182.5 452.484 170.1C454.684 157.7 457.484 145 460.884 132C464.484 119 468.284 106.9 472.284 95.7C476.284 84.5 480.084 75.2 483.684 67.8C485.484 64.2 487.484 60.8 489.684 57.6C491.884 54.2 494.084 52.5 496.284 52.5C497.684 52.5 498.884 53.2 499.884 54.6C501.084 56 501.684 57.2 501.684 58.2C501.684 59 500.284 62.2 497.484 67.8C494.884 73.2 491.484 80.4 487.284 89.4C483.084 98.2 478.784 108.3 474.384 119.7C470.184 131.1 466.384 143.3 462.984 156.3C459.584 169.3 457.284 182.5 456.084 195.9C456.084 196.1 455.984 197.1 455.784 198.9C455.584 200.7 455.384 202.5 455.184 204.3C455.184 206.1 455.184 207 455.184 207V206.7H455.484C455.884 204.3 456.584 202 457.584 199.8C458.784 197.6 459.984 195.5 461.184 193.5C467.184 181.5 474.884 170 484.284 159C488.884 153.8 493.684 149.3 498.684 145.5C503.684 141.5 508.884 139.5 514.284 139.5C516.484 139.5 518.384 140.1 519.984 141.3C521.584 142.5 522.384 144.8 522.384 148.2C522.384 152.6 520.884 157.8 517.884 163.8C515.084 169.6 511.584 175.7 507.384 182.1C503.384 188.3 499.684 194.2 496.284 199.8C491.684 207.6 487.484 215.9 483.684 224.7C480.084 233.3 478.284 242.3 478.284 251.7C478.284 254.5 478.484 257.5 478.884 260.7C479.484 263.9 480.384 266.6 481.584 268.8C482.984 271.2 484.884 272.4 487.284 272.4C488.884 272.4 490.384 271.9 491.784 270.9C493.384 270.1 494.684 269.3 495.684 268.5C497.484 266.7 498.684 265.8 499.284 265.8C499.884 265.8 500.184 266.1 500.184 266.7C500.184 267.9 499.684 269 498.684 270C497.684 271.2 496.684 272.1 495.684 272.7C494.284 273.9 492.384 275 489.984 276C487.784 277 485.584 277.5 483.384 277.5ZM583.551 260.1C582.551 260.1 581.251 259.3 579.651 257.7C578.051 256.1 577.451 254.9 577.851 254.1C580.851 248.5 585.951 240.7 593.151 230.7C600.351 220.9 608.851 209.6 618.651 196.8C628.651 184 639.451 170.6 651.051 156.6C662.651 142.4 674.551 128.2 686.751 114C698.951 99.8 710.851 86.4 722.451 73.8C734.251 61 745.151 49.6 755.151 39.6C765.351 29.6 774.051 21.8 781.251 16.2C784.051 14 786.951 12.5 789.951 11.7C792.951 10.7 795.451 10.2 797.451 10.2C799.851 10.2 801.051 10.7 801.051 11.7C801.051 12.1 800.551 12.8 799.551 13.8C795.351 17 788.851 23 780.051 31.8C771.251 40.6 760.951 51.2 749.151 63.6C737.551 76 725.051 89.5 711.651 104.1C698.451 118.7 685.151 133.6 671.751 148.8C658.551 164 646.051 178.7 634.251 192.9C622.651 207.1 612.451 220 603.651 231.6C594.851 243.2 588.351 252.6 584.151 259.8C583.951 260 583.751 260.1 583.551 260.1Z" fill="#FFCD42"/>
<path d="M121.562 293.7C117.162 293.9 113.762 293.1 111.362 291.3C108.762 289.5 107.862 286.1 108.662 281.1C108.662 280.5 108.862 279.6 109.262 278.4C109.662 277.2 110.162 276.4 110.762 276C110.562 281 111.162 284.5 112.562 286.5C113.962 288.5 116.262 289.5 119.462 289.5C127.262 289.5 135.262 287 143.463 282C151.863 277 160.163 270.3 168.363 261.9C166.363 261.3 163.763 260.1 160.563 258.3C157.563 256.7 155.263 255.4 153.663 254.4C145.663 248.6 141.662 241.9 141.662 234.3C141.662 228.5 144.263 222.2 149.463 215.4C154.663 208.6 163.163 201.7 174.963 194.7C182.563 190.1 191.363 186 201.363 182.4C211.363 178.8 220.663 175.9 229.263 173.7C232.263 167.9 235.163 162.2 237.963 156.6C240.763 151 243.463 145.4 246.063 139.8C247.063 137.6 248.863 133.4 251.463 127.2C254.063 121 256.963 113.7 260.163 105.3C263.363 96.9 266.363 88 269.163 78.6C272.163 69 274.663 59.7 276.663 50.7C278.663 41.7 279.663 33.7 279.663 26.7C279.663 19.9 278.463 14.6 276.063 10.8C273.863 7.00002 269.863 5.10002 264.063 5.10002H263.763C262.163 5.10002 261.363 4.60002 261.363 3.60002C261.363 2.60002 262.363 1.90002 264.363 1.50001C273.963 0.500012 280.663 2.80001 284.463 8.40001C288.263 14 290.163 21.4 290.163 30.6C290.163 32.2 290.063 33.9 289.863 35.7C289.863 37.5 289.763 39.4 289.563 41.4C290.763 42.4 291.563 44.1 291.963 46.5C293.163 52.9 294.363 61.3 295.563 71.7C296.963 82.1 298.563 93.5 300.363 105.9C302.163 118.3 304.263 130.9 306.663 143.7C309.263 156.3 312.263 168.2 315.663 179.4C319.263 190.4 323.463 199.7 328.263 207.3C329.263 208.9 330.663 211 332.463 213.6C334.263 216 336.463 218.2 339.063 220.2C341.663 222.2 344.563 223.2 347.763 223.2C351.163 223.2 354.663 221.8 358.263 219C361.463 216.4 364.463 212.8 367.263 208.2C370.063 203.6 372.663 198.7 375.063 193.5C376.263 191.3 377.363 190.2 378.363 190.2C379.363 190.2 380.063 190.8 380.463 192C381.063 193 381.263 194 381.063 195C380.263 197.6 378.563 200.7 375.963 204.3C373.563 207.7 371.063 210.9 368.463 213.9C365.863 216.7 363.763 218.7 362.163 219.9C358.563 222.7 355.063 224.7 351.663 225.9C348.463 227.3 345.463 228 342.663 228C336.063 228 330.263 225.5 325.263 220.5C320.463 215.3 316.263 209.9 312.663 204.3C307.663 196.3 303.663 186.2 300.663 174C297.863 161.8 295.663 148.6 294.062 134.4C292.463 120.2 291.163 106.2 290.163 92.4C289.363 78.6 288.463 66 287.463 54.6C285.063 65.8 281.763 77.3 277.563 89.1C273.363 100.9 269.063 111.8 264.663 121.8C260.463 131.6 256.963 139.2 254.163 144.6C249.763 153.6 244.963 162.6 239.763 171.6C248.963 169.4 258.563 167.4 268.563 165.6C278.563 163.8 287.363 162.1 294.963 160.5H295.863C296.663 160.5 297.063 160.8 297.063 161.4C297.063 162 296.563 162.8 295.563 163.8C294.563 164.8 293.262 165.5 291.663 165.9C283.063 167.5 273.763 169.4 263.763 171.6C253.763 173.6 244.363 175.8 235.563 178.2C226.362 194 217.063 209 207.663 223.2C198.263 237.4 187.963 250 176.763 261C184.363 263.4 194.063 264.6 205.863 264.6H206.463C208.063 264.6 208.863 265 208.863 265.8C208.863 267 207.663 267.6 205.263 267.6C199.663 267.8 194.163 267.5 188.763 266.7C183.363 266.1 178.363 265.1 173.763 263.7C164.963 272.3 156.063 279.2 147.063 284.4C138.262 289.8 129.762 292.9 121.562 293.7ZM171.363 258.9C180.963 248.9 190.263 237.2 199.263 223.8C208.463 210.4 217.063 196.4 225.063 181.8C222.463 182.6 219.763 183.5 216.963 184.5C214.163 185.5 211.463 186.7 208.863 188.1C205.463 189.7 200.863 192 195.063 195C189.263 198 183.463 201.2 177.663 204.6C172.063 207.8 167.763 210.7 164.763 213.3C160.763 216.9 157.863 220.4 156.063 223.8C154.263 227.2 153.363 230.5 153.363 233.7C153.363 236.5 153.863 239.2 154.863 241.8C156.063 244.4 157.463 246.9 159.063 249.3C160.063 250.5 161.863 252.1 164.463 254.1C167.263 256.3 169.563 257.9 171.363 258.9ZM383.134 235.2C379.334 235.2 376.734 234.1 375.334 231.9C374.534 230.7 374.134 229.4 374.134 228C374.134 226.4 374.834 224.5 376.234 222.3C377.634 220.1 380.134 218.1 383.734 216.3C384.134 216.1 385.634 215.2 388.234 213.6C391.034 212 392.734 211.1 393.334 210.9C392.134 206.5 390.034 202.1 387.034 197.7C384.034 193.1 381.334 187.9 378.934 182.1C376.534 176.3 375.534 169.1 375.934 160.5C376.334 152.3 378.534 145.2 382.534 139.2C386.534 133.2 391.634 128.3 397.834 124.5C404.234 120.7 410.834 118.1 417.634 116.7C419.234 116.3 420.934 116 422.734 115.8C424.534 115.6 426.334 115.5 428.134 115.5C433.134 115.5 437.534 116.1 441.334 117.3C445.334 118.5 448.734 120.5 451.534 123.3C454.534 126.1 456.034 129.2 456.034 132.6C456.034 134.8 455.334 137 453.934 139.2C453.534 140 452.934 140.8 452.134 141.6C451.334 142.4 450.334 142.8 449.134 142.8C448.334 142.8 447.934 142.2 447.934 141C447.934 140 448.134 138.7 448.534 137.1C449.134 135.5 449.534 134.5 449.734 134.1C449.934 133.7 450.034 133 450.034 132C450.034 129.8 449.434 128 448.234 126.6C446.834 124.8 444.634 123.7 441.634 123.3C438.834 122.9 436.234 122.7 433.834 122.7C426.834 122.7 419.934 124.6 413.134 128.4C406.334 132.2 400.334 137.1 395.134 143.1C390.134 148.9 386.634 155.1 384.634 161.7C384.034 163.5 383.634 165.3 383.434 167.1C383.234 168.7 383.134 170.3 383.134 171.9C383.134 178.9 384.734 185.6 387.934 192C391.134 198.4 393.934 204.3 396.334 209.7C401.934 206.7 406.934 204.6 411.334 203.4C411.934 203.2 412.434 203.1 412.834 203.1C413.434 203.1 413.834 203.1 414.034 203.1C415.034 203.1 415.534 203.4 415.534 204C415.534 205 414.234 206 411.634 207C411.034 207.2 409.534 207.8 407.134 208.8C404.734 209.8 401.834 211.2 398.434 213C399.434 215.6 399.934 218.1 399.934 220.5C399.934 222.9 399.334 225.2 398.134 227.4C396.934 229.6 394.834 231.4 391.834 232.8C388.834 234.4 385.934 235.2 383.134 235.2ZM384.034 227.1C384.234 228.5 385.134 228.8 386.734 228C388.534 227.2 390.334 225.8 392.134 223.8C393.934 221.8 394.834 219.8 394.834 217.8C394.834 217.4 394.834 217 394.834 216.6C395.034 216 395.034 215.4 394.834 214.8C391.834 216.6 389.234 218.6 387.034 220.8C384.834 222.8 383.834 224.9 384.034 227.1ZM483.384 277.5C478.784 277.5 475.284 275.6 472.884 271.8C470.684 268 469.584 263.6 469.584 258.6C469.584 252.6 470.684 245.7 472.884 237.9C475.284 230.3 478.184 222.5 481.584 214.5C484.984 206.3 488.484 198.4 492.084 190.8C495.884 183.2 499.184 176.4 501.984 170.4C504.984 164.4 506.984 159.8 507.984 156.6C509.184 153 509.784 150.3 509.784 148.5C509.784 146.5 509.084 145.5 507.684 145.5C506.084 145.5 503.684 146.8 500.484 149.4C497.484 151.8 494.484 154.5 491.484 157.5C488.684 160.5 486.684 162.7 485.484 164.1C479.084 171.3 473.284 179.3 468.084 188.1C463.084 196.9 459.984 204.4 458.784 210.6C458.584 211.6 458.184 213.4 457.584 216C457.184 218.6 456.284 219.8 454.884 219.6C452.884 219.2 451.484 218 450.684 216C450.084 213.8 449.684 211.8 449.484 210C449.484 209 449.384 208 449.184 207C449.184 205.8 449.184 204.6 449.184 203.4C449.184 193.6 450.284 182.5 452.484 170.1C454.684 157.7 457.484 145 460.884 132C464.484 119 468.284 106.9 472.284 95.7C476.284 84.5 480.084 75.2 483.684 67.8C485.484 64.2 487.484 60.8 489.684 57.6C491.884 54.2 494.084 52.5 496.284 52.5C497.684 52.5 498.884 53.2 499.884 54.6C501.084 56 501.684 57.2 501.684 58.2C501.684 59 500.284 62.2 497.484 67.8C494.884 73.2 491.484 80.4 487.284 89.4C483.084 98.2 478.784 108.3 474.384 119.7C470.184 131.1 466.384 143.3 462.984 156.3C459.584 169.3 457.284 182.5 456.084 195.9C456.084 196.1 455.984 197.1 455.784 198.9C455.584 200.7 455.384 202.5 455.184 204.3C455.184 206.1 455.184 207 455.184 207V206.7H455.484C455.884 204.3 456.584 202 457.584 199.8C458.784 197.6 459.984 195.5 461.184 193.5C467.184 181.5 474.884 170 484.284 159C488.884 153.8 493.684 149.3 498.684 145.5C503.684 141.5 508.884 139.5 514.284 139.5C516.484 139.5 518.384 140.1 519.984 141.3C521.584 142.5 522.384 144.8 522.384 148.2C522.384 152.6 520.884 157.8 517.884 163.8C515.084 169.6 511.584 175.7 507.384 182.1C503.384 188.3 499.684 194.2 496.284 199.8C491.684 207.6 487.484 215.9 483.684 224.7C480.084 233.3 478.284 242.3 478.284 251.7C478.284 254.5 478.484 257.5 478.884 260.7C479.484 263.9 480.384 266.6 481.584 268.8C482.984 271.2 484.884 272.4 487.284 272.4C488.884 272.4 490.384 271.9 491.784 270.9C493.384 270.1 494.684 269.3 495.684 268.5C497.484 266.7 498.684 265.8 499.284 265.8C499.884 265.8 500.184 266.1 500.184 266.7C500.184 267.9 499.684 269 498.684 270C497.684 271.2 496.684 272.1 495.684 272.7C494.284 273.9 492.384 275 489.984 276C487.784 277 485.584 277.5 483.384 277.5ZM583.551 260.1C582.551 260.1 581.251 259.3 579.651 257.7C578.051 256.1 577.451 254.9 577.851 254.1C580.851 248.5 585.951 240.7 593.151 230.7C600.351 220.9 608.851 209.6 618.651 196.8C628.651 184 639.451 170.6 651.051 156.6C662.651 142.4 674.551 128.2 686.751 114C698.951 99.8 710.851 86.4 722.451 73.8C734.251 61 745.151 49.6 755.151 39.6C765.351 29.6 774.051 21.8 781.251 16.2C784.051 14 786.951 12.5 789.951 11.7C792.951 10.7 795.451 10.2 797.451 10.2C799.851 10.2 801.051 10.7 801.051 11.7C801.051 12.1 800.551 12.8 799.551 13.8C795.351 17 788.851 23 780.051 31.8C771.251 40.6 760.951 51.2 749.151 63.6C737.551 76 725.051 89.5 711.651 104.1C698.451 118.7 685.151 133.6 671.751 148.8C658.551 164 646.051 178.7 634.251 192.9C622.651 207.1 612.451 220 603.651 231.6C594.851 243.2 588.351 252.6 584.151 259.8C583.951 260 583.751 260.1 583.551 260.1Z" fill="#FF9A52" fill-opacity="0.6"/>
<path d="M121.562 293.7C117.162 293.9 113.762 293.1 111.362 291.3C108.762 289.5 107.862 286.1 108.662 281.1C108.662 280.5 108.862 279.6 109.262 278.4C109.662 277.2 110.162 276.4 110.762 276C110.562 281 111.162 284.5 112.562 286.5C113.962 288.5 116.262 289.5 119.462 289.5C127.262 289.5 135.262 287 143.463 282C151.863 277 160.163 270.3 168.363 261.9C166.363 261.3 163.763 260.1 160.563 258.3C157.563 256.7 155.263 255.4 153.663 254.4C145.663 248.6 141.662 241.9 141.662 234.3C141.662 228.5 144.263 222.2 149.463 215.4C154.663 208.6 163.163 201.7 174.963 194.7C182.563 190.1 191.363 186 201.363 182.4C211.363 178.8 220.663 175.9 229.263 173.7C232.263 167.9 235.163 162.2 237.963 156.6C240.763 151 243.463 145.4 246.063 139.8C247.063 137.6 248.863 133.4 251.463 127.2C254.063 121 256.963 113.7 260.163 105.3C263.363 96.9 266.363 88 269.163 78.6C272.163 69 274.663 59.7 276.663 50.7C278.663 41.7 279.663 33.7 279.663 26.7C279.663 19.9 278.463 14.6 276.063 10.8C273.863 7.00002 269.863 5.10002 264.063 5.10002H263.763C262.163 5.10002 261.363 4.60002 261.363 3.60002C261.363 2.60002 262.363 1.90002 264.363 1.50001C273.963 0.500012 280.663 2.80001 284.463 8.40001C288.263 14 290.163 21.4 290.163 30.6C290.163 32.2 290.063 33.9 289.863 35.7C289.863 37.5 289.763 39.4 289.563 41.4C290.763 42.4 291.563 44.1 291.963 46.5C293.163 52.9 294.363 61.3 295.563 71.7C296.963 82.1 298.563 93.5 300.363 105.9C302.163 118.3 304.263 130.9 306.663 143.7C309.263 156.3 312.263 168.2 315.663 179.4C319.263 190.4 323.463 199.7 328.263 207.3C329.263 208.9 330.663 211 332.463 213.6C334.263 216 336.463 218.2 339.063 220.2C341.663 222.2 344.563 223.2 347.763 223.2C351.163 223.2 354.663 221.8 358.263 219C361.463 216.4 364.463 212.8 367.263 208.2C370.063 203.6 372.663 198.7 375.063 193.5C376.263 191.3 377.363 190.2 378.363 190.2C379.363 190.2 380.063 190.8 380.463 192C381.063 193 381.263 194 381.063 195C380.263 197.6 378.563 200.7 375.963 204.3C373.563 207.7 371.063 210.9 368.463 213.9C365.863 216.7 363.763 218.7 362.163 219.9C358.563 222.7 355.063 224.7 351.663 225.9C348.463 227.3 345.463 228 342.663 228C336.063 228 330.263 225.5 325.263 220.5C320.463 215.3 316.263 209.9 312.663 204.3C307.663 196.3 303.663 186.2 300.663 174C297.863 161.8 295.663 148.6 294.062 134.4C292.463 120.2 291.163 106.2 290.163 92.4C289.363 78.6 288.463 66 287.463 54.6C285.063 65.8 281.763 77.3 277.563 89.1C273.363 100.9 269.063 111.8 264.663 121.8C260.463 131.6 256.963 139.2 254.163 144.6C249.763 153.6 244.963 162.6 239.763 171.6C248.963 169.4 258.563 167.4 268.563 165.6C278.563 163.8 287.363 162.1 294.963 160.5H295.863C296.663 160.5 297.063 160.8 297.063 161.4C297.063 162 296.563 162.8 295.563 163.8C294.563 164.8 293.262 165.5 291.663 165.9C283.063 167.5 273.763 169.4 263.763 171.6C253.763 173.6 244.363 175.8 235.563 178.2C226.362 194 217.063 209 207.663 223.2C198.263 237.4 187.963 250 176.763 261C184.363 263.4 194.063 264.6 205.863 264.6H206.463C208.063 264.6 208.863 265 208.863 265.8C208.863 267 207.663 267.6 205.263 267.6C199.663 267.8 194.163 267.5 188.763 266.7C183.363 266.1 178.363 265.1 173.763 263.7C164.963 272.3 156.063 279.2 147.063 284.4C138.262 289.8 129.762 292.9 121.562 293.7ZM171.363 258.9C180.963 248.9 190.263 237.2 199.263 223.8C208.463 210.4 217.063 196.4 225.063 181.8C222.463 182.6 219.763 183.5 216.963 184.5C214.163 185.5 211.463 186.7 208.863 188.1C205.463 189.7 200.863 192 195.063 195C189.263 198 183.463 201.2 177.663 204.6C172.063 207.8 167.763 210.7 164.763 213.3C160.763 216.9 157.863 220.4 156.063 223.8C154.263 227.2 153.363 230.5 153.363 233.7C153.363 236.5 153.863 239.2 154.863 241.8C156.063 244.4 157.463 246.9 159.063 249.3C160.063 250.5 161.863 252.1 164.463 254.1C167.263 256.3 169.563 257.9 171.363 258.9ZM383.134 235.2C379.334 235.2 376.734 234.1 375.334 231.9C374.534 230.7 374.134 229.4 374.134 228C374.134 226.4 374.834 224.5 376.234 222.3C377.634 220.1 380.134 218.1 383.734 216.3C384.134 216.1 385.634 215.2 388.234 213.6C391.034 212 392.734 211.1 393.334 210.9C392.134 206.5 390.034 202.1 387.034 197.7C384.034 193.1 381.334 187.9 378.934 182.1C376.534 176.3 375.534 169.1 375.934 160.5C376.334 152.3 378.534 145.2 382.534 139.2C386.534 133.2 391.634 128.3 397.834 124.5C404.234 120.7 410.834 118.1 417.634 116.7C419.234 116.3 420.934 116 422.734 115.8C424.534 115.6 426.334 115.5 428.134 115.5C433.134 115.5 437.534 116.1 441.334 117.3C445.334 118.5 448.734 120.5 451.534 123.3C454.534 126.1 456.034 129.2 456.034 132.6C456.034 134.8 455.334 137 453.934 139.2C453.534 140 452.934 140.8 452.134 141.6C451.334 142.4 450.334 142.8 449.134 142.8C448.334 142.8 447.934 142.2 447.934 141C447.934 140 448.134 138.7 448.534 137.1C449.134 135.5 449.534 134.5 449.734 134.1C449.934 133.7 450.034 133 450.034 132C450.034 129.8 449.434 128 448.234 126.6C446.834 124.8 444.634 123.7 441.634 123.3C438.834 122.9 436.234 122.7 433.834 122.7C426.834 122.7 419.934 124.6 413.134 128.4C406.334 132.2 400.334 137.1 395.134 143.1C390.134 148.9 386.634 155.1 384.634 161.7C384.034 163.5 383.634 165.3 383.434 167.1C383.234 168.7 383.134 170.3 383.134 171.9C383.134 178.9 384.734 185.6 387.934 192C391.134 198.4 393.934 204.3 396.334 209.7C401.934 206.7 406.934 204.6 411.334 203.4C411.934 203.2 412.434 203.1 412.834 203.1C413.434 203.1 413.834 203.1 414.034 203.1C415.034 203.1 415.534 203.4 415.534 204C415.534 205 414.234 206 411.634 207C411.034 207.2 409.534 207.8 407.134 208.8C404.734 209.8 401.834 211.2 398.434 213C399.434 215.6 399.934 218.1 399.934 220.5C399.934 222.9 399.334 225.2 398.134 227.4C396.934 229.6 394.834 231.4 391.834 232.8C388.834 234.4 385.934 235.2 383.134 235.2ZM384.034 227.1C384.234 228.5 385.134 228.8 386.734 228C388.534 227.2 390.334 225.8 392.134 223.8C393.934 221.8 394.834 219.8 394.834 217.8C394.834 217.4 394.834 217 394.834 216.6C395.034 216 395.034 215.4 394.834 214.8C391.834 216.6 389.234 218.6 387.034 220.8C384.834 222.8 383.834 224.9 384.034 227.1ZM483.384 277.5C478.784 277.5 475.284 275.6 472.884 271.8C470.684 268 469.584 263.6 469.584 258.6C469.584 252.6 470.684 245.7 472.884 237.9C475.284 230.3 478.184 222.5 481.584 214.5C484.984 206.3 488.484 198.4 492.084 190.8C495.884 183.2 499.184 176.4 501.984 170.4C504.984 164.4 506.984 159.8 507.984 156.6C509.184 153 509.784 150.3 509.784 148.5C509.784 146.5 509.084 145.5 507.684 145.5C506.084 145.5 503.684 146.8 500.484 149.4C497.484 151.8 494.484 154.5 491.484 157.5C488.684 160.5 486.684 162.7 485.484 164.1C479.084 171.3 473.284 179.3 468.084 188.1C463.084 196.9 459.984 204.4 458.784 210.6C458.584 211.6 458.184 213.4 457.584 216C457.184 218.6 456.284 219.8 454.884 219.6C452.884 219.2 451.484 218 450.684 216C450.084 213.8 449.684 211.8 449.484 210C449.484 209 449.384 208 449.184 207C449.184 205.8 449.184 204.6 449.184 203.4C449.184 193.6 450.284 182.5 452.484 170.1C454.684 157.7 457.484 145 460.884 132C464.484 119 468.284 106.9 472.284 95.7C476.284 84.5 480.084 75.2 483.684 67.8C485.484 64.2 487.484 60.8 489.684 57.6C491.884 54.2 494.084 52.5 496.284 52.5C497.684 52.5 498.884 53.2 499.884 54.6C501.084 56 501.684 57.2 501.684 58.2C501.684 59 500.284 62.2 497.484 67.8C494.884 73.2 491.484 80.4 487.284 89.4C483.084 98.2 478.784 108.3 474.384 119.7C470.184 131.1 466.384 143.3 462.984 156.3C459.584 169.3 457.284 182.5 456.084 195.9C456.084 196.1 455.984 197.1 455.784 198.9C455.584 200.7 455.384 202.5 455.184 204.3C455.184 206.1 455.184 207 455.184 207V206.7H455.484C455.884 204.3 456.584 202 457.584 199.8C458.784 197.6 459.984 195.5 461.184 193.5C467.184 181.5 474.884 170 484.284 159C488.884 153.8 493.684 149.3 498.684 145.5C503.684 141.5 508.884 139.5 514.284 139.5C516.484 139.5 518.384 140.1 519.984 141.3C521.584 142.5 522.384 144.8 522.384 148.2C522.384 152.6 520.884 157.8 517.884 163.8C515.084 169.6 511.584 175.7 507.384 182.1C503.384 188.3 499.684 194.2 496.284 199.8C491.684 207.6 487.484 215.9 483.684 224.7C480.084 233.3 478.284 242.3 478.284 251.7C478.284 254.5 478.484 257.5 478.884 260.7C479.484 263.9 480.384 266.6 481.584 268.8C482.984 271.2 484.884 272.4 487.284 272.4C488.884 272.4 490.384 271.9 491.784 270.9C493.384 270.1 494.684 269.3 495.684 268.5C497.484 266.7 498.684 265.8 499.284 265.8C499.884 265.8 500.184 266.1 500.184 266.7C500.184 267.9 499.684 269 498.684 270C497.684 271.2 496.684 272.1 495.684 272.7C494.284 273.9 492.384 275 489.984 276C487.784 277 485.584 277.5 483.384 277.5ZM583.551 260.1C582.551 260.1 581.251 259.3 579.651 257.7C578.051 256.1 577.451 254.9 577.851 254.1C580.851 248.5 585.951 240.7 593.151 230.7C600.351 220.9 608.851 209.6 618.651 196.8C628.651 184 639.451 170.6 651.051 156.6C662.651 142.4 674.551 128.2 686.751 114C698.951 99.8 710.851 86.4 722.451 73.8C734.251 61 745.151 49.6 755.151 39.6C765.351 29.6 774.051 21.8 781.251 16.2C784.051 14 786.951 12.5 789.951 11.7C792.951 10.7 795.451 10.2 797.451 10.2C799.851 10.2 801.051 10.7 801.051 11.7C801.051 12.1 800.551 12.8 799.551 13.8C795.351 17 788.851 23 780.051 31.8C771.251 40.6 760.951 51.2 749.151 63.6C737.551 76 725.051 89.5 711.651 104.1C698.451 118.7 685.151 133.6 671.751 148.8C658.551 164 646.051 178.7 634.251 192.9C622.651 207.1 612.451 220 603.651 231.6C594.851 243.2 588.351 252.6 584.151 259.8C583.951 260 583.751 260.1 583.551 260.1Z" fill="#FF0000" fill-opacity="0.4"/>
<path d="M121.562 293.7C117.162 293.9 113.762 293.1 111.362 291.3C108.762 289.5 107.862 286.1 108.662 281.1C108.662 280.5 108.862 279.6 109.262 278.4C109.662 277.2 110.162 276.4 110.762 276C110.562 281 111.162 284.5 112.562 286.5C113.962 288.5 116.262 289.5 119.462 289.5C127.262 289.5 135.262 287 143.463 282C151.863 277 160.163 270.3 168.363 261.9C166.363 261.3 163.763 260.1 160.563 258.3C157.563 256.7 155.263 255.4 153.663 254.4C145.663 248.6 141.662 241.9 141.662 234.3C141.662 228.5 144.263 222.2 149.463 215.4C154.663 208.6 163.163 201.7 174.963 194.7C182.563 190.1 191.363 186 201.363 182.4C211.363 178.8 220.663 175.9 229.263 173.7C232.263 167.9 235.163 162.2 237.963 156.6C240.763 151 243.463 145.4 246.063 139.8C247.063 137.6 248.863 133.4 251.463 127.2C254.063 121 256.963 113.7 260.163 105.3C263.363 96.9 266.363 88 269.163 78.6C272.163 69 274.663 59.7 276.663 50.7C278.663 41.7 279.663 33.7 279.663 26.7C279.663 19.9 278.463 14.6 276.063 10.8C273.863 7.00002 269.863 5.10002 264.063 5.10002H263.763C262.163 5.10002 261.363 4.60002 261.363 3.60002C261.363 2.60002 262.363 1.90002 264.363 1.50001C273.963 0.500012 280.663 2.80001 284.463 8.40001C288.263 14 290.163 21.4 290.163 30.6C290.163 32.2 290.063 33.9 289.863 35.7C289.863 37.5 289.763 39.4 289.563 41.4C290.763 42.4 291.563 44.1 291.963 46.5C293.163 52.9 294.363 61.3 295.563 71.7C296.963 82.1 298.563 93.5 300.363 105.9C302.163 118.3 304.263 130.9 306.663 143.7C309.263 156.3 312.263 168.2 315.663 179.4C319.263 190.4 323.463 199.7 328.263 207.3C329.263 208.9 330.663 211 332.463 213.6C334.263 216 336.463 218.2 339.063 220.2C341.663 222.2 344.563 223.2 347.763 223.2C351.163 223.2 354.663 221.8 358.263 219C361.463 216.4 364.463 212.8 367.263 208.2C370.063 203.6 372.663 198.7 375.063 193.5C376.263 191.3 377.363 190.2 378.363 190.2C379.363 190.2 380.063 190.8 380.463 192C381.063 193 381.263 194 381.063 195C380.263 197.6 378.563 200.7 375.963 204.3C373.563 207.7 371.063 210.9 368.463 213.9C365.863 216.7 363.763 218.7 362.163 219.9C358.563 222.7 355.063 224.7 351.663 225.9C348.463 227.3 345.463 228 342.663 228C336.063 228 330.263 225.5 325.263 220.5C320.463 215.3 316.263 209.9 312.663 204.3C307.663 196.3 303.663 186.2 300.663 174C297.863 161.8 295.663 148.6 294.062 134.4C292.463 120.2 291.163 106.2 290.163 92.4C289.363 78.6 288.463 66 287.463 54.6C285.063 65.8 281.763 77.3 277.563 89.1C273.363 100.9 269.063 111.8 264.663 121.8C260.463 131.6 256.963 139.2 254.163 144.6C249.763 153.6 244.963 162.6 239.763 171.6C248.963 169.4 258.563 167.4 268.563 165.6C278.563 163.8 287.363 162.1 294.963 160.5H295.863C296.663 160.5 297.063 160.8 297.063 161.4C297.063 162 296.563 162.8 295.563 163.8C294.563 164.8 293.262 165.5 291.663 165.9C283.063 167.5 273.763 169.4 263.763 171.6C253.763 173.6 244.363 175.8 235.563 178.2C226.362 194 217.063 209 207.663 223.2C198.263 237.4 187.963 250 176.763 261C184.363 263.4 194.063 264.6 205.863 264.6H206.463C208.063 264.6 208.863 265 208.863 265.8C208.863 267 207.663 267.6 205.263 267.6C199.663 267.8 194.163 267.5 188.763 266.7C183.363 266.1 178.363 265.1 173.763 263.7C164.963 272.3 156.063 279.2 147.063 284.4C138.262 289.8 129.762 292.9 121.562 293.7ZM171.363 258.9C180.963 248.9 190.263 237.2 199.263 223.8C208.463 210.4 217.063 196.4 225.063 181.8C222.463 182.6 219.763 183.5 216.963 184.5C214.163 185.5 211.463 186.7 208.863 188.1C205.463 189.7 200.863 192 195.063 195C189.263 198 183.463 201.2 177.663 204.6C172.063 207.8 167.763 210.7 164.763 213.3C160.763 216.9 157.863 220.4 156.063 223.8C154.263 227.2 153.363 230.5 153.363 233.7C153.363 236.5 153.863 239.2 154.863 241.8C156.063 244.4 157.463 246.9 159.063 249.3C160.063 250.5 161.863 252.1 164.463 254.1C167.263 256.3 169.563 257.9 171.363 258.9ZM383.134 235.2C379.334 235.2 376.734 234.1 375.334 231.9C374.534 230.7 374.134 229.4 374.134 228C374.134 226.4 374.834 224.5 376.234 222.3C377.634 220.1 380.134 218.1 383.734 216.3C384.134 216.1 385.634 215.2 388.234 213.6C391.034 212 392.734 211.1 393.334 210.9C392.134 206.5 390.034 202.1 387.034 197.7C384.034 193.1 381.334 187.9 378.934 182.1C376.534 176.3 375.534 169.1 375.934 160.5C376.334 152.3 378.534 145.2 382.534 139.2C386.534 133.2 391.634 128.3 397.834 124.5C404.234 120.7 410.834 118.1 417.634 116.7C419.234 116.3 420.934 116 422.734 115.8C424.534 115.6 426.334 115.5 428.134 115.5C433.134 115.5 437.534 116.1 441.334 117.3C445.334 118.5 448.734 120.5 451.534 123.3C454.534 126.1 456.034 129.2 456.034 132.6C456.034 134.8 455.334 137 453.934 139.2C453.534 140 452.934 140.8 452.134 141.6C451.334 142.4 450.334 142.8 449.134 142.8C448.334 142.8 447.934 142.2 447.934 141C447.934 140 448.134 138.7 448.534 137.1C449.134 135.5 449.534 134.5 449.734 134.1C449.934 133.7 450.034 133 450.034 132C450.034 129.8 449.434 128 448.234 126.6C446.834 124.8 444.634 123.7 441.634 123.3C438.834 122.9 436.234 122.7 433.834 122.7C426.834 122.7 419.934 124.6 413.134 128.4C406.334 132.2 400.334 137.1 395.134 143.1C390.134 148.9 386.634 155.1 384.634 161.7C384.034 163.5 383.634 165.3 383.434 167.1C383.234 168.7 383.134 170.3 383.134 171.9C383.134 178.9 384.734 185.6 387.934 192C391.134 198.4 393.934 204.3 396.334 209.7C401.934 206.7 406.934 204.6 411.334 203.4C411.934 203.2 412.434 203.1 412.834 203.1C413.434 203.1 413.834 203.1 414.034 203.1C415.034 203.1 415.534 203.4 415.534 204C415.534 205 414.234 206 411.634 207C411.034 207.2 409.534 207.8 407.134 208.8C404.734 209.8 401.834 211.2 398.434 213C399.434 215.6 399.934 218.1 399.934 220.5C399.934 222.9 399.334 225.2 398.134 227.4C396.934 229.6 394.834 231.4 391.834 232.8C388.834 234.4 385.934 235.2 383.134 235.2ZM384.034 227.1C384.234 228.5 385.134 228.8 386.734 228C388.534 227.2 390.334 225.8 392.134 223.8C393.934 221.8 394.834 219.8 394.834 217.8C394.834 217.4 394.834 217 394.834 216.6C395.034 216 395.034 215.4 394.834 214.8C391.834 216.6 389.234 218.6 387.034 220.8C384.834 222.8 383.834 224.9 384.034 227.1ZM483.384 277.5C478.784 277.5 475.284 275.6 472.884 271.8C470.684 268 469.584 263.6 469.584 258.6C469.584 252.6 470.684 245.7 472.884 237.9C475.284 230.3 478.184 222.5 481.584 214.5C484.984 206.3 488.484 198.4 492.084 190.8C495.884 183.2 499.184 176.4 501.984 170.4C504.984 164.4 506.984 159.8 507.984 156.6C509.184 153 509.784 150.3 509.784 148.5C509.784 146.5 509.084 145.5 507.684 145.5C506.084 145.5 503.684 146.8 500.484 149.4C497.484 151.8 494.484 154.5 491.484 157.5C488.684 160.5 486.684 162.7 485.484 164.1C479.084 171.3 473.284 179.3 468.084 188.1C463.084 196.9 459.984 204.4 458.784 210.6C458.584 211.6 458.184 213.4 457.584 216C457.184 218.6 456.284 219.8 454.884 219.6C452.884 219.2 451.484 218 450.684 216C450.084 213.8 449.684 211.8 449.484 210C449.484 209 449.384 208 449.184 207C449.184 205.8 449.184 204.6 449.184 203.4C449.184 193.6 450.284 182.5 452.484 170.1C454.684 157.7 457.484 145 460.884 132C464.484 119 468.284 106.9 472.284 95.7C476.284 84.5 480.084 75.2 483.684 67.8C485.484 64.2 487.484 60.8 489.684 57.6C491.884 54.2 494.084 52.5 496.284 52.5C497.684 52.5 498.884 53.2 499.884 54.6C501.084 56 501.684 57.2 501.684 58.2C501.684 59 500.284 62.2 497.484 67.8C494.884 73.2 491.484 80.4 487.284 89.4C483.084 98.2 478.784 108.3 474.384 119.7C470.184 131.1 466.384 143.3 462.984 156.3C459.584 169.3 457.284 182.5 456.084 195.9C456.084 196.1 455.984 197.1 455.784 198.9C455.584 200.7 455.384 202.5 455.184 204.3C455.184 206.1 455.184 207 455.184 207V206.7H455.484C455.884 204.3 456.584 202 457.584 199.8C458.784 197.6 459.984 195.5 461.184 193.5C467.184 181.5 474.884 170 484.284 159C488.884 153.8 493.684 149.3 498.684 145.5C503.684 141.5 508.884 139.5 514.284 139.5C516.484 139.5 518.384 140.1 519.984 141.3C521.584 142.5 522.384 144.8 522.384 148.2C522.384 152.6 520.884 157.8 517.884 163.8C515.084 169.6 511.584 175.7 507.384 182.1C503.384 188.3 499.684 194.2 496.284 199.8C491.684 207.6 487.484 215.9 483.684 224.7C480.084 233.3 478.284 242.3 478.284 251.7C478.284 254.5 478.484 257.5 478.884 260.7C479.484 263.9 480.384 266.6 481.584 268.8C482.984 271.2 484.884 272.4 487.284 272.4C488.884 272.4 490.384 271.9 491.784 270.9C493.384 270.1 494.684 269.3 495.684 268.5C497.484 266.7 498.684 265.8 499.284 265.8C499.884 265.8 500.184 266.1 500.184 266.7C500.184 267.9 499.684 269 498.684 270C497.684 271.2 496.684 272.1 495.684 272.7C494.284 273.9 492.384 275 489.984 276C487.784 277 485.584 277.5 483.384 277.5ZM583.551 260.1C582.551 260.1 581.251 259.3 579.651 257.7C578.051 256.1 577.451 254.9 577.851 254.1C580.851 248.5 585.951 240.7 593.151 230.7C600.351 220.9 608.851 209.6 618.651 196.8C628.651 184 639.451 170.6 651.051 156.6C662.651 142.4 674.551 128.2 686.751 114C698.951 99.8 710.851 86.4 722.451 73.8C734.251 61 745.151 49.6 755.151 39.6C765.351 29.6 774.051 21.8 781.251 16.2C784.051 14 786.951 12.5 789.951 11.7C792.951 10.7 795.451 10.2 797.451 10.2C799.851 10.2 801.051 10.7 801.051 11.7C801.051 12.1 800.551 12.8 799.551 13.8C795.351 17 788.851 23 780.051 31.8C771.251 40.6 760.951 51.2 749.151 63.6C737.551 76 725.051 89.5 711.651 104.1C698.451 118.7 685.151 133.6 671.751 148.8C658.551 164 646.051 178.7 634.251 192.9C622.651 207.1 612.451 220 603.651 231.6C594.851 243.2 588.351 252.6 584.151 259.8C583.951 260 583.751 260.1 583.551 260.1Z" fill="#4D0202" fill-opacity="0.2"/>
<path d="M741.738 186.3C740.538 186.3 739.938 185.7 739.938 184.5C739.938 183.9 740.838 182.2 742.638 179.4C744.438 176.4 746.638 172.9 749.238 168.9C751.838 164.7 754.538 160.5 757.338 156.3C760.338 152.1 762.938 148.4 765.138 145.2C767.338 141.8 768.838 139.6 769.638 138.6C768.438 137.2 766.238 134.6 763.038 130.8C760.038 127 756.738 122.9 753.138 118.5C749.538 113.9 746.438 109.7 743.838 105.9C741.438 102.1 740.238 99.6 740.238 98.4C740.238 95.8 741.338 94.5 743.538 94.5L745.938 95.7C750.938 102.5 756.538 108.5 762.738 113.7C768.938 118.7 775.438 123.7 782.238 128.7C782.838 128.9 783.138 129.5 783.138 130.5C783.138 132.1 781.538 135.3 778.338 140.1C775.338 144.9 771.638 150.2 767.238 156C763.038 161.8 759.038 167.2 755.238 172.2C751.438 177.2 748.838 180.8 747.438 183C746.038 185.2 744.138 186.3 741.738 186.3Z" fill="#FFCD42"/>
<path d="M741.738 186.3C740.538 186.3 739.938 185.7 739.938 184.5C739.938 183.9 740.838 182.2 742.638 179.4C744.438 176.4 746.638 172.9 749.238 168.9C751.838 164.7 754.538 160.5 757.338 156.3C760.338 152.1 762.938 148.4 765.138 145.2C767.338 141.8 768.838 139.6 769.638 138.6C768.438 137.2 766.238 134.6 763.038 130.8C760.038 127 756.738 122.9 753.138 118.5C749.538 113.9 746.438 109.7 743.838 105.9C741.438 102.1 740.238 99.6 740.238 98.4C740.238 95.8 741.338 94.5 743.538 94.5L745.938 95.7C750.938 102.5 756.538 108.5 762.738 113.7C768.938 118.7 775.438 123.7 782.238 128.7C782.838 128.9 783.138 129.5 783.138 130.5C783.138 132.1 781.538 135.3 778.338 140.1C775.338 144.9 771.638 150.2 767.238 156C763.038 161.8 759.038 167.2 755.238 172.2C751.438 177.2 748.838 180.8 747.438 183C746.038 185.2 744.138 186.3 741.738 186.3Z" fill="#FF9A52" fill-opacity="0.8"/>
<path d="M741.738 186.3C740.538 186.3 739.938 185.7 739.938 184.5C739.938 183.9 740.838 182.2 742.638 179.4C744.438 176.4 746.638 172.9 749.238 168.9C751.838 164.7 754.538 160.5 757.338 156.3C760.338 152.1 762.938 148.4 765.138 145.2C767.338 141.8 768.838 139.6 769.638 138.6C768.438 137.2 766.238 134.6 763.038 130.8C760.038 127 756.738 122.9 753.138 118.5C749.538 113.9 746.438 109.7 743.838 105.9C741.438 102.1 740.238 99.6 740.238 98.4C740.238 95.8 741.338 94.5 743.538 94.5L745.938 95.7C750.938 102.5 756.538 108.5 762.738 113.7C768.938 118.7 775.438 123.7 782.238 128.7C782.838 128.9 783.138 129.5 783.138 130.5C783.138 132.1 781.538 135.3 778.338 140.1C775.338 144.9 771.638 150.2 767.238 156C763.038 161.8 759.038 167.2 755.238 172.2C751.438 177.2 748.838 180.8 747.438 183C746.038 185.2 744.138 186.3 741.738 186.3Z" fill="#FF0000" fill-opacity="0.65"/>
<path d="M741.738 186.3C740.538 186.3 739.938 185.7 739.938 184.5C739.938 183.9 740.838 182.2 742.638 179.4C744.438 176.4 746.638 172.9 749.238 168.9C751.838 164.7 754.538 160.5 757.338 156.3C760.338 152.1 762.938 148.4 765.138 145.2C767.338 141.8 768.838 139.6 769.638 138.6C768.438 137.2 766.238 134.6 763.038 130.8C760.038 127 756.738 122.9 753.138 118.5C749.538 113.9 746.438 109.7 743.838 105.9C741.438 102.1 740.238 99.6 740.238 98.4C740.238 95.8 741.338 94.5 743.538 94.5L745.938 95.7C750.938 102.5 756.538 108.5 762.738 113.7C768.938 118.7 775.438 123.7 782.238 128.7C782.838 128.9 783.138 129.5 783.138 130.5C783.138 132.1 781.538 135.3 778.338 140.1C775.338 144.9 771.638 150.2 767.238 156C763.038 161.8 759.038 167.2 755.238 172.2C751.438 177.2 748.838 180.8 747.438 183C746.038 185.2 744.138 186.3 741.738 186.3Z" fill="#4D0202" fill-opacity="0.3"/>
</g>
<defs>
<filter id="filter0_d_2_136" x="0" y="0" width="805.051" height="302" filterUnits="userSpaceOnUse" color-interpolation-filters="sRGB">
<feFlood flood-opacity="0" result="BackgroundImageFix"/>
<feColorMatrix in="SourceAlpha" type="matrix" values="0 0 0 0 0 0 0 0 0 0 0 0 0 0 0 0 0 0 127 0" result="hardAlpha"/>
<feOffset dy="4"/>
<feGaussianBlur stdDeviation="2"/>
<feComposite in2="hardAlpha" operator="out"/>
<feColorMatrix type="matrix" values="0 0 0 0 0 0 0 0 0 0.25 0 0 0 0 1 0 0 0 0.29 0"/>
<feBlend mode="normal" in2="BackgroundImageFix" result="effect1_dropShadow_2_136"/>
<feBlend mode="normal" in="SourceGraphic" in2="effect1_dropShadow_2_136" result="shape"/>
</filter>
</defs>
</svg>
